<svg width="90" height="90" viewBox="0 0 90 90" fill="none" xmlns="http://www.w3.org/2000/svg">
<circle cx="45" cy="45" r="45" fill="#20224F"/>
<path d="M57.3874 39.6911C57.3874 31.425 48.869 24.7297 38.3559 24.7297C27.8428 24.7297 19.3243 31.425 19.3243 39.6911C19.3243 42.8985 20.6145 45.8533 22.8013 48.2939C21.5752 51.1179 19.5531 53.3621 19.5256 53.3901C19.3243 53.6052 19.2694 53.9231 19.3884 54.2037C19.5073 54.4842 19.7635 54.6525 20.0563 54.6525C23.4051 54.6525 26.1775 53.5024 28.1722 52.3148C31.1184 53.7829 34.6045 54.6525 38.3559 54.6525C48.869 54.6525 57.3874 47.9573 57.3874 39.6911ZM68.5501 60.263C70.7369 57.8318 72.027 54.8676 72.027 51.6602C72.027 45.4045 67.1319 40.0465 60.1964 37.8116C60.2787 38.4288 60.3153 39.0553 60.3153 39.6911C60.3153 49.5937 50.461 57.6448 38.3559 57.6448C37.3677 57.6448 36.407 57.57 35.4554 57.4671C38.3376 62.8439 45.1084 66.6216 52.9955 66.6216C56.7469 66.6216 60.233 65.7613 63.1792 64.2839C65.1739 65.4715 67.9462 66.6216 71.2951 66.6216C71.5879 66.6216 71.8532 66.444 71.963 66.1728C72.0819 65.9016 72.027 65.5837 71.8257 65.3593C71.7983 65.3312 69.7762 63.0963 68.5501 60.263Z" fill="#D34F00"/>
</svg>
